/* XPM */
static char * arch_xpm[] = {
"26 26 181 2",
"  	c None",
". 	c #202020",
"+ 	c #201F1F",
"@ 	c #1E2C32",
"# 	c #20282C",
"$ 	c #1F1F1F",
"% 	c #1B526E",
"& 	c #22536C",
"* 	c #1F2121",
"= 	c #19678E",
"- 	c #1F6A8E",
"; 	c #202121",
"> 	c #201F1E",
", 	c #1F313A",
"' 	c #1B73A0",
") 	c #1E74A0",
"! 	c #24343C",
"~ 	c #1F1F1E",
"{ 	c #1F1B19",
"] 	c #206A8E",
"^ 	c #1E739C",
"/ 	c #1D729C",
"( 	c #317495",
"_ 	c #1F1C1B",
": 	c #20323B",
"< 	c #23769F",
"[ 	c #23749D",
"} 	c #21739C",
"| 	c #2878A0",
"1 	c #273840",
"2 	c #1F1E1E",
"3 	c #25556E",
"4 	c #27769D",
"5 	c #26769E",
"6 	c #24749D",
"7 	c #23749C",
"8 	c #306078",
"9 	c #1F1E1D",
"0 	c #2A6E8E",
"a 	c #2B789E",
"b 	c #2A779F",
"c 	c #29769E",
"d 	c #27769E",
"e 	c #337FA5",
"f 	c #22292D",
"g 	c #274453",
"h 	c #222F35",
"i 	c #2D7193",
"j 	c #2E7AA0",
"k 	c #2C799E",
"l 	c #2C78A0",
"m 	c #386B84",
"n 	c #22282B",
"o 	c #34799C",
"p 	c #327698",
"q 	c #284857",
"r 	c #2E6885",
"s 	c #307BA0",
"t 	c #2F799E",
"u 	c #2D799E",
"v 	c #357B9D",
"w 	c #242A2E",
"x 	c #2D5062",
"y 	c #397FA2",
"z 	c #387EA0",
"A 	c #3780A5",
"B 	c #326D8A",
"C 	c #347CA0",
"D 	c #327CA0",
"E 	c #317BA0",
"F 	c #355E72",
"G 	c #1E1B19",
"H 	c #212628",
"I 	c #4187AB",
"J 	c #3D81A2",
"K 	c #3B80A2",
"L 	c #3A7FA1",
"M 	c #397FA1",
"N 	c #387DA1",
"O 	c #377EA1",
"P 	c #357DA1",
"Q 	c #337BA1",
"R 	c #3E85A9",
"S 	c #262F34",
"T 	c #366074",
"U 	c #4283A3",
"V 	c #3F81A2",
"W 	c #2F7A9F",
"X 	c #25759D",
"Y 	c #20739C",
"Z 	c #2C799F",
"` 	c #38657B",
" .	c #212426",
"..	c #4683A2",
"+.	c #3E81A2",
"@.	c #2A779E",
"#.	c #176F9A",
"$.	c #186F9A",
"%.	c #19709B",
"&.	c #18709B",
"*.	c #1C729D",
"=.	c #21272A",
"-.	c #1E1C1B",
";.	c #3C6A81",
">.	c #28779F",
",.	c #18719D",
"'.	c #1F6588",
").	c #201C1A",
"!.	c #1F2020",
"~.	c #1F2E36",
"{.	c #1B729D",
"].	c #18729E",
"^.	c #1B5470",
"/.	c #1F2B31",
"(.	c #1F2C32",
"_.	c #1B5673",
":.	c #196F9A",
"<.	c #1E313B",
"[.	c #201D1C",
"}.	c #1A6387",
"|.	c #201C1B",
"1.	c #196388",
"2.	c #1A5B7B",
"3.	c #201D1B",
"4.	c #1E343F",
"5.	c #18739F",
"6.	c #18709C",
"7.	c #1D4255",
"8.	c #1D4153",
"9.	c #1873A0",
"0.	c #1E3642",
"a.	c #202021",
"b.	c #1A6488",
"c.	c #18729F",
"d.	c #1E2E35",
"e.	c #1F2C33",
"f.	c #19678D",
"g.	c #196A92",
"h.	c #19688F",
"i.	c #1F2122",
"j.	c #1E3039",
"k.	c #18719C",
"l.	c #1F262A",
"m.	c #1D4356",
"n.	c #1D3F4F",
"o.	c #1E3038",
"p.	c #196B94",
"q.	c #1874A1",
"r.	c #1F282C",
"s.	c #1A5E80",
"t.	c #1F272B",
"u.	c #201E1E",
"v.	c #1C4458",
"w.	c #196E98",
"x.	c #19668B",
"y.	c #1B5573",
"z.	c #1F2A30",
"A.	c #1F272A",
"B.	c #1B5775",
"C.	c #19668C",
"D.	c #19739F",
"E.	c #196B93",
"F.	c #1C465B",
"G.	c #1F2223",
"H.	c #1C485E",
"I.	c #201E1D",
"J.	c #1C5069",
"K.	c #1875A3",
"L.	c #19658B",
"M.	c #1C4255",
"N.	c #1C4457",
"O.	c #1C4C65",
"P.	c #1F2A2F",
"Q.	c #196C95",
"R.	c #1D4152",
"S.	c #1C4357",
"T.	c #196C96",
"U.	c #1F292D",
"V.	c #1F2427",
"W.	c #1F2629",
"X.	c #1F2B30",
". . . . . . . . . . . + @ # $ . . . . . . . . . . . ",
". . . . . . . . . . . + % & $ . . . . . . . . . . . ",
". . . . . . . . . . . * = - ; . . . . . . . . . . . ",
". . . . . . . . . . > , ' ) ! ~ . . . . . . . . . . ",
". . . . . . . . . . { ] ^ / ( _ . . . . . . . . . . ",
". . . . . . . . . . : < [ } | 1 . . . . . . . . . . ",
". . . . . . . . . 2 3 4 5 6 7 8 9 . . . . . . . . . ",
". . . . . . . . . { 0 a b c d e f $ . . . . . . . . ",
". . . . . . . . $ g h i j k a l m ~ . . . . . . . . ",
". . . . . . . . n o p q r s t u v w . . . . . . . . ",
". . . . . . . _ x y z A B C D E E F G . . . . . . . ",
". . . . . . $ H I J K L M N O P Q R S . . . . . . . ",
". . . . . . . T U U V W X Y Y } X Z ` $ . . . . . . ",
". . . . . $  ...+.@.#.#.$.%.%.&.$.#.*.=.$ . . . . . ",
". . . . . -.;.>.%.$.$.&.,.,.&.%.%.%.&.'.).. . . . . ",
". . . . !.~.{.$.%.%.].^./.(._.].%.%.:.&.<.!.. . . . ",
". . . !.[._.:.%.%.:.}.|.!.!.).1.:.%.%.&.2.3.$ . . . ",
". . . + 4.5.%.%.%.6.7.+ . . + 8.6.%.%.%.9.0.+ . . . ",
". . !.a.b.&.%.%.%.c.d.. . . . e.c.%.&.f.g.h.i.!.. . ",
". . + j.k.%.%.%.%.9.l.. . . . l.9.%.:.&.m.n.o.> . . ",
". . > p.&.%.%.%.:.q.r.. . . . l.q.:.%.&.5.s.t.u.. . ",
". + v.6.%.&.6.w.x.y.z.. . . . A.B.C.w.6.&.&.D.j.+ . ",
"!.).E.:.6.&.F.l.i.+ + . . . . + + G.t.H.,.6.&.E.).!.",
"I.J.K.L.M.* [.$ . . . . . . . . . . $ [.G.N.f.K.O.[.",
"P.Q.R.3.+ . . . . . . . . . . . . . . . . + 3.S.T.U.",
"/.V.I.!.. . . . . . . . . . . . . . . . . . !.I.W.X."};
